:SAMPLES-PER-SECOND 24
:FULLY-SPECIFIED
:DEGREES
99
root  -1.47177 36.6588 30.0447 167.605 61.3095 172.224
RightUpLeg  -2.7659 -7.94733 -20.9765
RightLeg  40.3282 7.11189 6.16429
RightFoot  -22.3235 1.22272 14.2359
RightToes  -1.74623e-010 0 -2.59999e-017
Spine  5.49691 1.53813 0.00944646
Spine1  17.6757 2.05552 -3.56753
HEad  -31.1143 46.3694 -31.8737
LeftShoulder1  1.68164 -3.3078 -18.0952
LeftArm  13.8552 -0.170883 -40.7929
LeftForeArm  25.1553 -48.668 -10.8694
LeftHand  -0.0473082 5.05031 10.3675
RightShoulder  2.24937 4.27745 22.7183
RightArm  -5.55393 21.397 39.3956
RightForeArm  121.198 73.1999 140.105
RightHand  0.419799 -8.55638 -16.1175
LeftUpLeg  -11.9122 9.02171 11.4175
LeftLeg  39.6416 -3.72794 -2.90751
LeftFoot  -13.2984 -0.118806 -11.5748
LeftToes  -6.27559e-011 -2.10356e-011 8.24929e-012
100
root  -1.42956 36.8645 29.9583 167.867 60.9184 172.708
RightUpLeg  -2.43329 -6.73334 -20.4316
RightLeg  40.0036 5.80006 4.9347
RightFoot  -20.6191 1.09457 15.2155
RightToes  -1.74623e-010 0 -2.59999e-017
Spine  5.39413 1.267 0.148241
Spine1  18.4827 1.76405 -3.48658
HEad  -32.9793 46.3529 -33.8237
LeftShoulder1  1.69072 -3.21509 -18.6079
LeftArm  8.68355 0.397481 -44.1677
LeftForeArm  34.0452 -45.5985 -9.02436
LeftHand  0.607108 9.7849 16.5898
RightShoulder  2.46589 4.62444 24.2281
RightArm  -3.17231 18.1997 44.7232
RightForeArm  113.586 75.8074 130.713
RightHand  1.42294 -11.503 -26.7131
LeftUpLeg  -11.4136 6.7204 11.0529
LeftLeg  38.6203 -2.21776 -1.5154
LeftFoot  -12.3759 -0.0316859 -12.0548
LeftToes  -6.27559e-011 -2.10356e-011 8.24929e-012
101
root  -1.11132 38.2549 29.676 166.79 60.9879 171.756
RightUpLeg  -0.199486 -5.63188 -20.6514
RightLeg  35.2039 6.00441 4.26773
RightFoot  -12.0577 0.00552201 17.4325
RightToes  -1.74623e-010 0 -2.59999e-017
Spine  4.81816 1.73668 0.700385
Spine1  17.9975 2.58494 -4.2471
HEad  -29.3028 46.7981 -31.7275
LeftShoulder1  1.68628 -3.20085 -18.5945
LeftArm  7.86404 5.72125 -47.4881
LeftForeArm  34.3878 -45.9667 -9.13772
LeftHand  0.850809 10.0913 21.4212
RightShoulder  2.80918 5.12657 26.5364
RightArm  -0.27056 6.10082 47.711
RightForeArm  119.21 73.9657 137.653
RightHand  1.74688 -12.3638 -28.5304
LeftUpLeg  -7.71741 5.69323 9.9763
LeftLeg  32.1592 -1.56441 -0.68641
LeftFoot  -4.64132 0.776191 -12.6856
LeftToes  -6.27559e-011 -2.10356e-011 8.24929e-012
102
root  -0.773532 39.986 29.3671 166.782 60.8222 171.52
RightUpLeg  2.33475 -6.57591 -20.5929
RightLeg  28.0059 5.69271 3.05656
RightFoot  0.679023 -1.7906 16.9945
RightToes  -1.74623e-010 0 -2.59999e-017
Spine  4.11259 2.11342 1.23045
Spine1  16.4276 3.07925 -4.04311
HEad  -24.3563 47.5684 -28.6916
LeftShoulder1  1.75884 -3.07727 -20.2882
LeftArm  9.6717 12.1478 -46.1789
LeftForeArm  30.5477 -49.3373 -10.7369
LeftHand  0.00822622 5.43794 14.4139
RightShoulder  3.20645 5.56371 29.4377
RightArm  2.64278 -5.87355 45.1047
RightForeArm  127.068 70.0982 147.373
RightHand  1.00857 -11.4571 -19.6327
LeftUpLeg  -4.06079 6.87682 9.33916
LeftLeg  23.497 -1.80533 -0.499902
LeftFoot  8.51714 1.99581 -11.6991
LeftToes  -6.27559e-011 -2.10356e-011 8.24929e-012
103
root  -0.590107 41.1374 29.2478 169.729 59.9285 173.195
RightUpLeg  2.93205 -8.07058 -18.9796
RightLeg  22.6948 3.12167 1.21947
RightFoot  8.84026 -2.38277 13.675
RightToes  -1.74623e-010 0 -2.59999e-017
Spine  2.51899 2.06091 1.41394
Spine1  14.8111 2.76035 -2.87682
HEad  -21.0391 47.9912 -26.1489
LeftShoulder1  1.81575 -3.1531 -20.8745
LeftArm  9.80682 18.328 -44.8283
LeftForeArm  31.3381 -54.1708 -12.9713
LeftHand  -0.165348 2.03443 5.45481
RightShoulder  3.30249 5.67144 30.0882
RightArm  5.80295 -14.162 42.4767
RightForeArm  135.169 66.3617 153.69
RightHand  0.312346 -8.89692 -11.3282
LeftUpLeg  -3.75071 8.52891 9.57382
LeftLeg  18.0391 -0.875406 -0.0855671
LeftFoot  15.3955 2.21262 -9.69354
LeftToes  -6.27559e-011 -2.10356e-011 8.24929e-012
104
root  -0.52071 41.575 29.1993 171.628 59.1197 174.325
RightUpLeg  3.2518 -8.38089 -17.8492
RightLeg  20.3776 4.3996 1.58951
RightFoot  9.21776 -2.40793 13.5895
RightToes  -1.74623e-010 0 -2.59999e-017
Spine  0.806042 1.97067 1.62737
Spine1  15.3644 2.6095 -2.67602
HEad  -20.6414 47.2856 -25.3305
LeftShoulder1  1.79425 -3.49445 -19.1222
LeftArm  9.54183 22.1174 -46.1019
LeftForeArm  34.6358 -58.4849 -15.2637
LeftHand  -0.222258 1.04142 5.82696
RightShoulder  3.0221 5.38869 28.0253
RightArm  7.44233 -18.1444 42.3282
RightForeArm  144.163 62.8903 158.161
RightHand  0.0427843 -6.36909 -8.41955
LeftUpLeg  -4.41274 9.6095 9.54496
LeftLeg  17.4878 0.718329 0.407834
LeftFoot  14.1536 1.53479 -7.16522
LeftToes  -6.27559e-011 -2.10356e-011 8.24929e-012
105
root  -0.527803 41.4227 29.1621 171.101 59.0651 174.205
RightUpLeg  3.91907 -7.61184 -17.7453
RightLeg  20.5004 10.0449 3.94173
RightFoot  6.68986 -2.58142 16.5187
RightToes  -1.74623e-010 0 -2.59999e-017
Spine  0.818247 1.8951 1.71191
Spine1  16.3611 2.65179 -3.23822
HEad  -22.0874 46.6229 -26.2527
LeftShoulder1  1.76019 -3.67677 -17.9059
LeftArm  10.0745 22.8381 -46.3799
LeftForeArm  36.6335 -61.4082 -17.2524
LeftHand  -0.278725 2.44062 10.9275
RightShoulder  2.75351 5.0663 26.1088
RightArm  7.087 -17.4136 41.0426
RightForeArm  148.052 60.3773 160.556
RightHand  -0.0158647 -5.49235 -7.90062
LeftUpLeg  -4.12025 10.9066 9.31481
LeftLeg  19.4991 0.245124 0.389574
LeftFoot  13.8499 1.43828 -6.78303
LeftToes  -6.27559e-011 -2.10356e-011 8.24929e-012
106
root  -0.60007 40.5905 29.2444 170.352 59.1172 173.647
RightUpLeg  3.26121 -6.16364 -17.5322
RightLeg  23.7226 12.149 5.58295
RightFoot  0.797255 -1.69063 15.8605
RightToes  -1.74623e-010 0 -2.59999e-017
Spine  2.22333 1.85487 0.663143
Spine1  15.1539 2.38937 -2.92939
HEad  -22.672 46.5877 -26.5035
LeftShoulder1  1.69847 -3.62036 -17.1791
LeftArm  10.3169 22.3272 -45.7455
LeftForeArm  36.4935 -62.5226 -18.2297
LeftHand  -0.210886 3.59982 12.9825
RightShoulder  2.68332 5.01779 25.4372
RightArm  4.64855 -14.3742 37.9653
RightForeArm  144.472 59.9838 160.524
RightHand  -0.0291523 -5.27653 -7.38651
LeftUpLeg  -4.78855 12.0236 9.28811
LeftLeg  23.4324 -0.602768 0.0568586
LeftFoot  11.0932 1.76213 -9.21568
LeftToes  -6.27559e-011 -2.10356e-011 8.24929e-012
107
root  -0.760669 39.1632 29.365 170.8 58.5707 174.299
RightUpLeg  2.54866 -6.51881 -17.3998
RightLeg  28.2209 11.5156 6.41522
RightFoot  -10.3022 -0.191622 13.3222
RightToes  -1.74623e-010 0 -2.59999e-017
Spine  3.64598 1.74767 0.157853
Spine1  14.0824 1.98454 -2.26413
HEad  -23.7152 45.8048 -26.7962
LeftShoulder1  1.6381 -3.56737 -16.4457
LeftArm  10.4049 19.0639 -45.0235
LeftForeArm  32.2369 -61.3529 -17.6988
LeftHand  -0.256055 2.87196 11.4397
RightShoulder  2.6493 4.967 25.2138
RightArm  -0.165788 -9.78655 34.4912
RightForeArm  137.883 61.6431 158.638
RightHand  -0.0175612 -5.46791 -7.53213
LeftUpLeg  -7.13909 12.5045 9.93297
LeftLeg  29.9874 -0.73347 -0.0990124
LeftFoot  -0.182442 1.09753 -11.198
LeftToes  -6.27559e-011 -2.10356e-011 8.24929e-012
108
root  -1.0213 37.7447 29.3147 173.229 57.9754 177.506
RightUpLeg  2.50861 -8.84022 -16.8989
RightLeg  31.6621 12.3376 7.87126
RightFoot  -20.1411 0.852764 12.8034
RightToes  -1.74623e-010 0 -2.59999e-017
Spine  4.18912 1.11469 2.30666
Spine1  15.5222 1.38637 -2.19275
HEad  -27.7529 44.8104 -29.8582
LeftShoulder1  1.71845 -3.41733 -18.2517
LeftArm  9.37737 12.4351 -42.6088
LeftForeArm  30.2295 -58.1149 -15.47
LeftHand  -0.230559 2.72347 9.64772
RightShoulder  2.6462 4.80305 25.8225
RightArm  -5.52107 -1.5987 31.0953
RightForeArm  130.804 66.8311 152.5
RightHand  0.120202 -6.88136 -11.0082
LeftUpLeg  -9.88137 12.0124 11.6904
LeftLeg  36.7977 -0.965709 -0.392554
LeftFoot  -11.392 0.0640886 -11.1099
LeftToes  -6.27559e-011 -2.10356e-011 8.24929e-012
109
root  -1.1859 37.1233 29.036 175.52 58.2889 -179.962
RightUpLeg  1.89208 -9.49668 -16.195
RightLeg  33.3089 12.1307 8.22674
RightFoot  -23.119 1.14749 12.5345
RightToes  -1.74623e-010 0 -2.59999e-017
Spine  3.55316 0.670991 4.02116
Spine1  17.4931 0.835099 -1.91652
HEad  -31.6683 45.1362 -33.468
LeftShoulder1  1.87125 -3.26652 -21.2608
LeftArm  6.26315 8.84311 -41.4685
LeftForeArm  39.8494 -54.8789 -12.6185
LeftHand  -0.111096 4.38889 12.3426
RightShoulder  2.80796 4.92095 27.352
RightArm  -7.8053 5.46047 30.8139
RightForeArm  120.921 73.6191 138.825
RightHand  0.578946 -9.13841 -18.295
LeftUpLeg  -10.8316 11.3105 12.5871
LeftLeg  39.301 -0.613341 -0.140199
LeftFoot  -15.8222 -0.345542 -11.1877
LeftToes  -6.27559e-011 -2.10356e-011 8.24929e-012
110
root  -1.04303 37.768 28.5094 174.392 58.7749 178.667
RightUpLeg  2.33177 -7.53397 -16.8699
RightLeg  31.7169 11.0917 7.07502
RightFoot  -18.5866 0.782332 14.2221
RightToes  -1.74623e-010 0 -2.59999e-017
Spine  2.3517 1.26837 2.99255
Spine1  18.1052 1.02311 -0.972005
HEad  -30.348 45.9364 -33.1831
LeftShoulder1  1.86825 -3.21089 -21.4577
LeftArm  5.22761 12.021 -44.3132
LeftForeArm  48.6956 -54.4366 -11.6601
LeftHand  0.08763 6.05292 17.7242
RightShoulder  2.99412 5.19297 28.4892
RightArm  -7.38899 3.04713 34.6493
RightForeArm  117.8 75.5517 132.621
RightHand  0.97127 -10.0684 -24.0932
LeftUpLeg  -8.06197 10.9327 11.0516
LeftLeg  35.127 0.533178 0.742551
LeftFoot  -13.6088 -0.145448 -11.4847
LeftToes  -6.27559e-011 -2.10356e-011 8.24929e-012
111
root  -0.728727 39.3293 27.7777 172.314 57.1165 176.543
RightUpLeg  4.80989 -7.21086 -18.0365
RightLeg  27.1208 8.47192 4.47056
RightFoot  -6.5645 -0.762916 17.0945
RightToes  -1.74623e-010 0 -2.59999e-017
Spine  1.08817 1.79609 2.09528
Spine1  17.4203 1.38178 0.143699
HEad  -24.1025 45.9121 -29.1818
LeftShoulder1  1.79734 -3.16566 -20.5249
LeftArm  8.85116 17.7978 -45.9632
LeftForeArm  45.4409 -56.724 -13.1596
LeftHand  -0.225804 3.94002 17.4591
RightShoulder  3.18021 5.40229 29.7993
RightArm  -5.88166 -6.24477 37.6835
RightForeArm  128.188 72.2782 143.366
RightHand  0.759839 -9.25495 -22.9081
LeftUpLeg  -3.83047 10.8539 9.29887
LeftLeg  27.2914 -1.385 -0.427654
LeftFoot  -4.16259 0.733769 -11.2732
LeftToes  -6.27559e-011 -2.10356e-011 8.24929e-012
112
root  -0.483922 40.7891 27.1272 172.835 52.905 176.337
RightUpLeg  6.19858 -9.33354 -17.6656
RightLeg  23.5146 1.57908 0.521923
RightFoot  6.33496 -2.30941 15.1213
RightToes  -1.74623e-010 0 -2.59999e-017
Spine  -0.429102 1.4108 1.84103
Spine1  15.8795 0.89081 1.3035
HEad  -17.4089 45.1223 -24.3759
LeftShoulder1  1.78976 -3.07884 -20.7815
LeftArm  12.5684 22.3304 -44.0427
LeftForeArm  40.7875 -60.1032 -15.7884
LeftHand  -0.429268 1.58141 12.9171
RightShoulder  3.43085 5.65302 31.5853
RightArm  -2.24205 -14.5289 37.5617
RightForeArm  135.986 68.4317 151.16
RightHand  0.332243 -7.71785 -17.2373
LeftUpLeg  -3.52366 11.8712 8.88059
LeftLeg  22.8953 -6.99079 -2.93237
LeftFoot  8.09279 2.27702 -13.4869
LeftToes  -6.27559e-011 -2.10356e-011 8.24929e-012
